<svg width="194" height="194" viewBox="0 0 194 194" fill="none" xmlns="http://www.w3.org/2000/svg">
<rect width="194" height="194" rx="48" fill="#D58BAA" fill-opacity="0.1"/>
<path d="M147 102C149.761 102 152 99.7614 152 97C152 94.2386 149.761 92 147 92V102ZM43.4645 93.4645C41.5118 95.4171 41.5118 98.5829 43.4645 100.536L75.2843 132.355C77.2369 134.308 80.4027 134.308 82.3553 132.355C84.308 130.403 84.308 127.237 82.3553 125.284L54.0711 97L82.3553 68.7157C84.308 66.7631 84.308 63.5973 82.3553 61.6447C80.4027 59.692 77.2369 59.692 75.2843 61.6447L43.4645 93.4645ZM147 92L47 92V102L147 102V92Z" fill="white"/>
</svg>
