<svg width="64" height="64" viewBox="0 0 64 64" fill="none" xmlns="http://www.w3.org/2000/svg">
<path d="M54.6871 48.325L38.3621 32L54.6871 15.675C56.4496 13.9125 56.4496 11.075 54.6871 9.3125C52.9246 7.55 50.0871 7.55 48.3246 9.3125L31.9996 25.6375L15.6746 9.3125C13.9121 7.55 11.0746 7.55 9.31211 9.3125C7.54961 11.075 7.54961 13.9125 9.31211 15.675L25.6371 32L9.31211 48.325C7.54961 50.0875 7.54961 52.925 9.31211 54.6875C11.0746 56.45 13.9121 56.45 15.6746 54.6875L31.9996 38.3625L48.3246 54.6875C50.0871 56.45 52.9246 56.45 54.6871 54.6875C56.4371 52.925 56.4371 50.075 54.6871 48.325Z" fill="#71103D"/>
</svg>
