<svg width="150" height="300" viewBox="0 0 150 300" fill="none" xmlns="http://www.w3.org/2000/svg">
<circle cx="150" cy="150" r="150" transform="rotate(180 150 150)" fill="#D58EAB" fill-opacity="0.2"/>
<path d="M32 145C29.2386 145 27 147.239 27 150C27 152.761 29.2386 155 32 155L32 145ZM115.536 153.536C117.488 151.583 117.488 148.417 115.536 146.464L83.7157 114.645C81.7631 112.692 78.5973 112.692 76.6447 114.645C74.692 116.597 74.692 119.763 76.6447 121.716L104.929 150L76.6447 178.284C74.692 180.237 74.692 183.403 76.6447 185.355C78.5973 187.308 81.7631 187.308 83.7157 185.355L115.536 153.536ZM32 155L112 155L112 145L32 145L32 155Z" fill="#B6466C"/>
</svg>
