<svg width="150" height="300" viewBox="0 0 150 300" fill="none" xmlns="http://www.w3.org/2000/svg">
<circle cy="150" r="150" fill="#D58EAB" fill-opacity="0.2"/>
<path d="M118 155C120.761 155 123 152.761 123 150C123 147.239 120.761 145 118 145V155ZM34.4645 146.464C32.5118 148.417 32.5118 151.583 34.4645 153.536L66.2843 185.355C68.2369 187.308 71.4027 187.308 73.3553 185.355C75.308 183.403 75.308 180.237 73.3553 178.284L45.0711 150L73.3553 121.716C75.308 119.763 75.308 116.597 73.3553 114.645C71.4027 112.692 68.2369 112.692 66.2843 114.645L34.4645 146.464ZM118 145H38V155H118V145Z" fill="#B6466C"/>
</svg>
